inDegrees=yes
name=ik_appendData_table_roll
DataType=double
version=3
OpenSimVersion=4.5
endheader
time	pelvis_tilt	pelvis_list	pelvis_rotation	pelvis_tx	pelvis_ty	pelvis_tz	hip_flexion_r	hip_adduction_r	hip_rotation_r	knee_angle_r	knee_angle_r_beta	ankle_angle_r	subtalar_angle_r	mtp_angle_r	hip_flexion_l	hip_adduction_l	hip_rotation_l	knee_angle_l	knee_angle_l_beta	ankle_angle_l	subtalar_angle_l	mtp_angle_l	lumbar_extension	lumbar_bending	lumbar_rotation	arm_flex_r	arm_add_r	arm_rot_r	elbow_flex_r	pro_sup_r	wrist_flex_r	wrist_dev_r	arm_flex_l	arm_add_l	arm_rot_l	elbow_flex_l	pro_sup_l	wrist_flex_l	wrist_dev_l
75	-0.1342508697118188	89.90996771132751	-6.819115767309786	0	0.9399999999999999	0	44.81757702569109	-10.00572661641125	0	59.97300999844353	1.046726486804319	-5.000504667516094	0	0	44.81757702569109	-10.00572661641125	0	59.97300999844353	1.046726486804319	-5.000504667516094	0	0	1.145861052099969	0.1359107604762295	5.82235729120343	0	-13.3072168833583	0	75.52257410948808	44.9881963597858	0	0	1.162349338578308	1.572794002810795	-1.137210945620416	0.04498410535543444	44.9881963597858	0	0
76	-0.1322061773809637	89.91045327387198	-6.820663280876725	0	0.9399999999999999	0	44.81762156057537	-10.00572172687853	0	59.97301519241373	1.0467265774562	-5.000504105180997	0	0	44.81762156057537	-10.00572172687853	0	59.97301519241373	1.0467265774562	-5.000504105180997	0	0	1.147435417858209	0.1372546389100336	5.819540464597549	0	-13.30742836238104	0	75.52244657179411	44.98820433082275	0	0	0.5842806088780219	1.591910123635166	-1.137461476791851	0.05670736898054585	44.98820433082275	0	0
77	-0.096121976116288	89.90926805817462	-6.868797476771324	0	0.9399999999999999	0	44.8231683978945	-10.00501425051811	0	59.97365360897795	1.046737719927245	-5.000421662362826	0	0	44.8231683978945	-10.00501425051811	0	59.97365360897795	1.046737719927245	-5.000421662362826	0	0	1.146226215385632	0.13373004598563	5.827104665500068	0	-13.33155725639737	0	75.50656156402989	44.98933479825472	0	0	0.5769951078945572	1.006699563182021	-1.707887761448759	0.0607226803658841	44.98933479825472	0	0
78	-0.08643237731075087	89.91013563434194	-6.865541413040393	0	0.9399999999999999	0	44.8232108598056	-10.00501002649253	0	59.97365858371161	1.046737806752727	-5.000421198517127	0	0	44.8232108598056	-10.00501002649253	0	59.97365858371161	1.046737806752727	-5.000421198517127	0	0	1.142993763802953	0.1383088548961955	5.821816785761857	0	-13.33176189779453	0	75.5064399633189	44.98934190046054	0	0	0.5811953832938582	1.012095457123771	-1.701356301539852	0.06075278030227309	44.98934190046054	0	0
79	-0.08670630526857136	89.90912129390775	-6.868682074150658	0	0.9399999999999999	0	44.82324467904261	-10.00500667868901	0	59.97366256029023	1.046737876157117	-5.00042083127733	0	0	44.82324467904261	-10.00500667868901	0	59.97366256029023	1.046737876157117	-5.00042083127733	0	0	1.137583437941976	0.1450377023901533	5.818698059473326	0	-13.33192532077551	0	75.50634311317958	44.98934753456538	0	0	0.01192029297589847	1.040617879893702	-1.70214364547588	0.08312110905233933	44.98934753456538	0	0
80	-0.08210671706248765	89.91003003435496	-6.870812469211526	0	0.9399999999999999	0	44.82329234062979	-10.00500194188795	0	59.97366814406138	1.046737973612308	-5.000420311351554	0	0	44.82329234062979	-10.00500194188795	0	59.97366814406138	1.046737973612308	-5.000420311351554	0	0	1.14191028495409	0.1342031072150827	5.8210804417547	0	-13.33215505158732	0	75.50620662185135	44.98935550128764	0	0	-0.002858321714603178	1.024523660943715	-1.702095383191417	0.08398838876442513	44.98935550128764	0	0
81	0.5228212365615651	89.91006822998932	-7.469751562791644	0	0.9399999999999999	0	44.8280382103365	-10.00456324491777	0	59.9742233767597	1.046747664251008	-5.000374020417176	0	0	44.8280382103365	-10.00456324491777	0	59.9742233767597	1.046747664251008	-5.000374020417176	0	0	1.139727200331658	0.1361754964975514	5.818172354091891	0	-13.35510896991278	0	75.49261563761362	44.99011232494035	0	0	-0.02403566402181373	0.4532754391015359	-1.690362806225942	0.09281781030874871	44.99011232494035	0	0
82	0.5229562517761891	89.90942137368494	-7.476222135194128	0	0.9399999999999999	0	44.82808429563324	-10.00455895384674	0	59.9742288086008	1.04674775905452	-5.000373561104325	0	0	44.82808429563324	-10.00455895384674	0	59.9742288086008	1.04674775905452	-5.000373561104325	0	0	1.139061592456224	0.1216472313391011	5.82117737305028	0	-13.35533411333532	0	75.49248366080069	44.99011967476701	0	0	-0.02138802474713766	0.4358328443144739	-1.696017888444283	0.09249105807625545	44.99011967476701	0	0
83	0.5266874926422078	89.90961253995059	-7.479648305587712	0	0.9399999999999999	0	44.8281434151126	-10.00455345177453	0	59.97423577603082	1.046747880659114	-5.000372972315235	0	0	44.8281434151126	-10.00455345177453	0	59.97423577603082	1.046747880659114	-5.000372972315235	0	0	1.136004027977093	0.121969911767578	5.821940691869992	0	-13.35562294130214	0	75.49231435733792	44.99012910035495	0	0	-0.02207172509306835	0.4313758083017647	-1.697040459364533	0.09237501535489355	44.99012910035495	0	0
84	0.5297318767424446	89.90963502337975	-7.482678415810667	0	0.9399999999999999	0	44.82818400684951	-10.00454967886008	0	59.97424056170382	1.046747964184865	-5.00037256875197	0	0	44.82818400684951	-10.00454967886008	0	59.97424056170382	1.046747964184865	-5.00037256875197	0	0	1.142033287228387	0.1382716937965693	5.820949246133518	0	-13.35582132675724	0	75.49219811272127	44.9901355658749	0	0	-0.02783277881981189	0.4547088798936022	-1.696429376449316	0.09266818579606824	44.9901355658749	0	0
